<?xml version="1.0" standalone="no"?>
<!DOCTYPE svg PUBLIC "-//W3C//DTD SVG 20010904//EN"
 "http://www.w3.org/TR/2001/REC-SVG-20010904/DTD/svg10.dtd">
<svg version="1.0" xmlns="http://www.w3.org/2000/svg"
 width="270.000000pt" height="187.000000pt" viewBox="0 0 270.000000 187.000000"
 preserveAspectRatio="xMidYMid meet">
<metadata>
Created by potrace 1.16, written by Peter Selinger 2001-2019
</metadata>
<g transform="translate(0.000000,187.000000) scale(0.100000,-0.100000)"
fill="#000000" stroke="none">
<path d="M870 1853 c-310 -11 -556 -40 -621 -74 -101 -51 -159 -136 -183 -269
-65 -357 -52 -1041 25 -1246 28 -74 94 -145 166 -177 110 -49 514 -77 1118
-77 530 0 917 25 1038 66 60 20 148 100 177 160 89 184 107 971 29 1309 -23
97 -79 178 -160 228 -71 43 -204 61 -584 77 -213 9 -800 11 -1005 3z m573
-720 c181 -105 329 -193 329 -198 0 -7 -630 -375 -669 -392 -10 -4 -13 78 -13
392 0 314 3 396 13 392 6 -3 160 -90 340 -194z"/>
</g>
</svg>
